<svg width="53" height="51" xmlns="http://www.w3.org/2000/svg">
 <metadata id="metadata48">image/svg+xml</metadata>
 <defs>
  <linearGradient y2="1.61033" x2="0.36955" y1="0.06198" x1="0.55214" id="paint0_linear">
   <stop id="stop32" stop-color="#3AD1BF"/>
   <stop id="stop34" stop-color="#119BD2" offset="1"/>
  </linearGradient>
  <linearGradient y2="2.41363" x2="0.27762" y1="-0.26667" x1="0.55638" id="paint1_linear">
   <stop id="stop37" stop-color="#3AD1BF"/>
   <stop id="stop39" stop-color="#119BD2" offset="1"/>
  </linearGradient>
 </defs>
 <g>
  <title>background</title>
  <rect fill="none" id="canvas_background" height="53" width="55" y="-1" x="-1"/>
 </g>
 <g>
  <title>Layer 1</title>
  <path fill="url(#paint0_linear)" id="path26" d="m25.62695,1c-3.3221,0 -6.55038,0.6513 -9.58398,1.92383c-2.9322,1.23373 -5.56854,3.0037 -7.83008,5.2539c-2.26153,2.25019 -4.03935,4.87157 -5.2793,7.78907c-1.27893,3.0184 -1.93359,6.23161 -1.93359,9.53711c0,3.3054 0.65466,6.51089 1.93359,9.52929c1.23995,2.9175 3.01777,5.53887 5.2793,7.78907c2.26154,2.2502 4.89788,4.0202 7.83008,5.2539c3.0336,1.2725 6.26188,1.92383 9.58398,1.92383c3.3221,0 6.54259,-0.64352 9.58399,-1.91602c2.9321,-1.2338 5.56858,-3.0037 7.83008,-5.2539c2.2616,-2.2502 4.03929,-4.87156 5.27929,-7.78906c1.2789,-3.0184 1.9336,-6.23171 1.9336,-9.53711c0,-3.3055 -0.6469,-6.51871 -1.9336,-9.53711c-1.24,-2.9175 -3.01769,-5.53888 -5.27929,-7.78907c-2.2615,-2.2502 -4.89798,-4.02017 -7.83008,-5.2539c-3.0336,-1.27253 -6.26189,-1.92383 -9.58399,-1.92383zm0.00196,2.67773c0.34742,0 0.69168,0.00755 1.03515,0.02344c11.63417,0.53841 20.90039,10.09372 20.90039,21.80274c0,12.0546 -9.82014,21.82812 -21.93554,21.82812c-12.1154,0 -21.9375,-9.77352 -21.9375,-21.82812c0,-12.0547 9.8221,-21.82618 21.9375,-21.82618z"/>
  <path fill="url(#paint1_linear)" id="path30" d="m38.5189,16.3937c-0.3744,-0.0155 -0.8189,0.1164 -1.318,0.4656c-0.2417,0.1552 -0.4835,0.3569 -0.7018,0.5975c-0.1872,0.1862 -0.3822,0.4035 -0.5849,0.644l-9.9976,10.8553l3.8369,-5.6566c0.7096,-1.0475 0.8422,-2.3898 0.3509,-3.5537l-2.9712,-7.0067c-0.2574,-0.6052 -0.7642,-1.0397 -1.3569,-1.2182c-0.1326,-0.0388 -0.2652,-0.0698 -0.3977,-0.0776l-0.0078,0c-0.0234,0 -0.0546,-0.0078 -0.078,-0.0078c-0.0078,0 -0.0156,0 -0.0234,0c-0.0234,0 -0.039,0 -0.0624,0c-0.0156,0 -0.0312,0 -0.0468,0c-0.0156,0 -0.0312,0 -0.0468,0c-0.0234,0 -0.039,0 -0.0624,0c-0.0078,0 -0.0156,0 -0.0234,0c-0.0234,0 -0.0546,0 -0.078,0.0078l-0.0078,0c-0.1325,0.0155 -0.2651,0.0388 -0.3977,0.0776c-0.5927,0.1785 -1.0995,0.6052 -1.3569,1.2182l-2.9712,7.0144c-0.4913,1.1639 -0.3665,2.4985 0.3509,3.5538l3.8369,5.6488l-10.0834,-10.9639c-0.1403,-0.1707 -0.2729,-0.3259 -0.4055,-0.4656c-0.0078,-0.0078 -0.0078,-0.0155 -0.0156,-0.0233c-0.2885,-0.4112 -0.6706,-0.7138 -1.1074,-0.9078c-0.4055,-0.2328 -0.7642,-0.3259 -1.0761,-0.3104c-0.6785,0.0233 -1.30237,0.2871 -1.78587,0.6983c-0.31973,0.2716 -0.56148,0.613 -0.72525,0.9855c0,0 0,0 0,0.0077c-0.00779,0.0233 -0.02339,0.0544 -0.03119,0.0776l0,0.0078c-0.06239,0.1552 -0.10918,0.3181 -0.14037,0.4888c-0.03119,0.1552 -0.04679,0.3182 -0.04679,0.4889c0,0.0077 0,0.0077 0,0.0155c0,0.0931 0.0078,0.1707 0.02339,0.2328c0.0078,0.0543 0.0156,0.1086 0.0312,0.1551l3.79778,18.3586c0.0702,0.7604 0.5537,1.4587 1.3024,1.7768c1.0839,0.4501 2.3473,-0.062 2.7996,-1.1483l1.5675,-3.6935c0.4913,-1.1639 0.3665,-2.4985 -0.351,-3.5537l-3.7042,-5.4626c0,0 8.7576,9.7069 8.9292,9.8466c0.889,0.7449 2.1913,0.8768 3.2051,0.225c0.156,-0.1009 0.2963,-0.2095 0.4211,-0.3336c0.2028,-0.163 8.976,-9.738 8.976,-9.738l-3.7667,5.5557c-0.7096,1.0475 -0.8422,2.3899 -0.3509,3.5537l1.4583,3.4374c0.4523,1.0786 1.7157,1.5984 2.7996,1.1406c0.6941,-0.2871 1.162,-0.9078 1.279,-1.6061c0,-0.0156 0.0078,-0.0311 0.0078,-0.0466l3.7666,-18.0249c0,-0.0155 0.0078,-0.031 0.0078,-0.0388l0.0078,-0.0232c0.0312,-0.1319 0.0468,-0.2638 0.0468,-0.3958c0,-0.0388 0.0078,-0.0775 0.0078,-0.1241c0,-1.5131 -1.2244,-2.7002 -2.7294,-2.7546z"/>
 </g>
</svg>